<?xml version="1.0" encoding="UTF-8" standalone="no"?>
<!-- Created with Inkscape (http://www.inkscape.org/) -->

<svg
   version="1.1"
   id="svg1"
   width="180"
   height="180"
   viewBox="0 0 180 180"
   sodipodi:docname="favicon.svg"
   inkscape:version="1.4.4 (dcaf3e7d9e, 2026-05-05)"
   xmlns:inkscape="http://www.inkscape.org/namespaces/inkscape"
   xmlns:sodipodi="http://sodipodi.sourceforge.net/DTD/sodipodi-0.dtd"
   xmlns="http://www.w3.org/2000/svg"
   xmlns:svg="http://www.w3.org/2000/svg">
  <defs
     id="defs1" />
  <sodipodi:namedview
     id="namedview1"
     pagecolor="#ffffff"
     bordercolor="#000000"
     borderopacity="0.25"
     inkscape:showpageshadow="2"
     inkscape:pageopacity="0.0"
     inkscape:pagecheckerboard="0"
     inkscape:deskcolor="#d1d1d1"
     inkscape:zoom="4.9222222"
     inkscape:cx="89.89842"
     inkscape:cy="89.89842"
     inkscape:window-width="2494"
     inkscape:window-height="1371"
     inkscape:window-x="66"
     inkscape:window-y="32"
     inkscape:window-maximized="1"
     inkscape:current-layer="g1" />
  <g
     inkscape:groupmode="layer"
     inkscape:label="Image"
     id="g1">
    <path
       style="fill:#251e55"
       d="M 82,158.50112 C 74.194057,156.92677 64.600454,153.42843 63.086511,151.60424 62.483877,150.87811 61.044207,146.7326 59.887243,142.392 56.819576,130.88298 56.817963,115.02083 59.883442,105 64.829811,88.830671 71.830074,80.511241 93.345936,65.231654 112.53263,51.606133 122.74069,42.013702 127.17009,33.447364 c 3.49708,-6.763275 5.30033,-8.33625 4.23862,-3.697364 -1.91692,8.375533 -7.67399,17.775846 -23.03487,37.612017 C 93.308948,86.815954 88,99.029804 88,114.23438 c 0,10.06447 2.986363,21.06876 9.010172,33.2011 2.748415,5.53549 4.995478,10.62702 4.993478,11.31452 -0.005,1.65574 -11.254035,1.51578 -20.00365,-0.24888 z m 38.66575,-12.58109 c -6.32958,-6.99441 -11.86552,-17.03321 -13.67331,-24.795 -0.77378,-3.32223 -1.05456,-8.8599 -0.73521,-14.5 0.66126,-11.678869 3.78316,-20.419802 12.72375,-35.62503 10.96091,-18.641155 14.06485,-25.350636 17.00131,-36.75 0.60214,-2.3375 1.52745,-4.25 2.05625,-4.25 2.81463,0 -0.55755,19.376141 -6.65491,38.238337 -6.8182,21.092086 -6.5158,30.69639 1.32391,42.048133 3.09352,4.47934 13.04944,12.22142 19.04246,14.80809 2.55169,1.10135 4.25,2.49641 4.25,3.49111 0,4.33701 -22.91122,23.37535 -28.1661,23.40495 -0.91635,0.005 -4.14202,-2.72661 -7.16815,-6.07059 z M 33.102424,124.25 C 26.46919,113.01961 23.744718,103.43242 23.227229,89.5 22.95814,82.255281 23.228806,75.843864 23.910258,73.320723 26.099335,65.215455 43.042203,52.570341 57,48.624576 c 3.025,-0.855145 11.125,-2.497106 18,-3.648801 26.57762,-4.452266 35.12063,-7.759333 44.08754,-17.066635 6.2578,-6.495358 7.23683,-6.425453 3.81967,0.272734 C 117.92747,37.942983 107.14002,46.456496 87,56.520033 60.306506,69.858204 49.741827,80.980637 43.607513,102.20339 c -1.383616,4.78687 -2.788416,12.21187 -3.121778,16.5 C 39.729944,128.42534 39.214842,131 38.025606,131 c -0.51496,0 -2.730392,-3.0375 -4.923182,-6.75 z"
       id="path1" />
  </g>
</svg>
